<svg width="129" height="133" viewBox="0 0 129 133" fill="none" xmlns="http://www.w3.org/2000/svg">
<g clip-path="url(#clip0_1_65)">
<path d="M64.5 133C100.122 133 129 103.227 129 66.5C129 29.7731 100.122 0 64.5 0C28.8776 0 0 29.7731 0 66.5C0 103.227 28.8776 133 64.5 133Z" fill="#1A1A1A" fill-opacity="0.984314"/>
<path d="M57.4507 75.8992L64.7146 81.574L69.2385 81.7015L71.1501 79.8524C71.1501 79.8524 72.9342 78.1309 57.4507 75.8992Z" fill="#00A8BF" fill-opacity="0.984314"/>
<path d="M98.8036 78.641L101.289 76.5368C101.289 76.5368 105.494 79.98 104.092 81.9566C103.965 81.7653 100.205 79.7887 98.8036 78.641Z" fill="#00A8BF" fill-opacity="0.984314"/>
<path d="M25.415 44.9702C25.431 44.9303 23.4199 45.3948 21.0897 46.4558C21.0897 46.4558 15.9534 89.7858 51.9976 112.69C20.8194 88.343 25.415 44.9702 25.415 44.9702Z" fill="#00A8BF" fill-opacity="0.941176"/>
<path d="M60.3369 18.6375L58.5714 21.4423C58.5714 21.4423 58.311 21.9933 58.4304 22.4364C58.5206 22.7713 59.0401 23.0123 59.4789 22.9849C59.4789 22.9849 60.2998 23.0616 60.2998 21.8894L60.3369 18.6375Z" fill="#00A8BF"/>
<path d="M65.647 84.7629C65.647 84.7629 59.2491 83.4103 56.0953 81.6069L65.647 84.7629ZM56.0953 81.6069C56.0953 81.6069 68.7086 84.3084 76.8439 85.0364C77.3272 85.0797 71.19 79.1259 71.8411 79.203C72.6747 79.3018 78.1826 85.2798 78.713 85.3039C78.713 85.3039 77.74 86.0939 77.5416 86.6565C77.2616 87.4507 77.8899 88.3798 77.6317 89.1813C77.1654 90.6291 74.8383 92.7882 74.8383 92.7882C74.8383 92.7882 67.5161 93.1575 64.025 92.2417C62.8563 91.9351 60.781 90.6241 60.781 90.6241L65.647 84.7629" fill="white"/>
<path d="M61.7835 91.7758C61.4735 91.4365 64.5953 93.5728 66.1801 94.0075C68.9924 94.7788 74.9094 94.5813 74.9094 94.5813C68.5006 95.0494 61.9969 95.1378 55.3481 94.6451C55.3481 94.6451 61.5167 94.3882 63.8225 94.0075C64.8163 93.8433 61.7835 91.7758 61.7835 91.7758Z" fill="white"/>
<path d="M98.9947 93.4336C94.9805 96.0478 78.605 94.7088 78.605 94.7088C78.605 94.7088 79.3059 90.9469 79.4334 90.6918C80.0444 89.469 90.3083 92.4557 94.5982 90.3093C96.892 89.1616 98.0389 92.5409 98.9947 93.4336Z" fill="white"/>
<path d="M83.4476 72.5199C83.4476 72.5199 87.4618 73.6676 91.1575 77.1744L83.4476 72.5199Z" fill="white"/>
<path d="M91.1574 77.1744C91.1574 77.1744 86.4423 73.6676 81.9184 72.7112L64.9057 72.8387C64.6509 72.8387 60.0632 72.4561 60.0632 72.4561C60.0632 72.4561 63.4402 73.5401 65.6066 75.7079C65.6066 75.7079 64.5234 74.4327 58.2154 72.2011C58.2154 72.2011 52.7143 72.0346 49.1568 71.9584M49.1568 71.9584C48.1656 68.3516 42.4886 63.9331 42.4886 63.9331C42.4886 63.9331 52.4909 62.4002 66.2778 63.7528C66.2778 63.7528 53.4074 60.1778 30.1589 63.424C30.1589 63.424 29.861 62.0311 29.861 61.0747C29.861 61.0747 40.2788 59.9908 49.6135 60.8834C49.6135 60.8834 44.8984 59.385 31.4539 59.3213C31.4539 59.3213 45.3444 57.7273 58.0879 60.8516C58.0879 60.8516 55.9601 59.8303 47.4897 58.7482C47.4897 58.7482 69.1111 58.7476 87.5892 72.0098C87.5892 72.0098 85.168 72.0098 83.4476 72.5199" fill="white"/>
<path d="M45.2807 94.8942C47.6 94.8942 49.4802 91.1572 49.4802 86.5473C49.4802 81.9375 47.6 78.2004 45.2807 78.2004C42.9613 78.2004 41.0811 81.9375 41.0811 86.5473C41.0811 91.1572 42.9613 94.8942 45.2807 94.8942Z" fill="white"/>
<path d="M40.1195 87.5038C40.1195 87.5038 39.4824 76.3456 45.0895 76.1543C45.0895 76.1543 52.6082 75.8355 51.1427 93.2423C51.1427 93.2423 54.3286 75.0703 45.5355 74.4965C45.5355 74.4965 44.7072 74.3052 39.1 74.7515C39.1 74.7515 42.732 75.0703 41.9036 76.2181C41.9036 76.2181 40.9479 77.047 40.3107 78.5772L34.0663 79.0236L39.9284 79.4061C39.9284 79.4061 39.6098 79.9162 39.4186 82.2116L35.8504 82.4029L39.4824 82.7855C39.4824 82.7855 39.5461 84.252 40.1195 87.5038Z" fill="white"/>
<path d="M50.1869 89.6079C50.1869 89.6079 49.8046 95.8565 46.2364 96.4304C46.2364 96.4304 43.3054 96.9405 41.2664 93.2423L40.9478 94.1988C40.9478 94.1988 41.5586 95.5145 43.0241 96.726C43.6734 97.2627 45.2148 97.937 47.7152 97.8932C48.8221 97.8738 50.8896 97.7773 51.8313 97.3495C52.4325 97.0764 53.412 96.2578 54.4142 94.0184C54.4142 94.0184 53.4848 97.0307 48.3874 96.5206C48.3874 96.5206 51.3976 94.0075 50.1869 89.6079Z" fill="white"/>
<path d="M104.028 84.0607C104.028 84.0607 100.843 88.0139 97.9115 88.9066C95.4236 89.6643 98.9098 90.9865 99.8868 91.3932C100.597 91.689 102.181 91.1382 102.181 91.1382C102.181 91.1382 103.558 90.0619 103.833 89.2067C104.473 87.2098 104.028 84.0607 104.028 84.0607Z" fill="white"/>
<path d="M79.4971 84.5708C79.4971 84.5708 86.6335 85.2084 91.6672 84.8896C91.6672 84.8896 90.0742 80.5538 81.4086 75.4529C81.4086 75.4529 88.7362 78.1946 92.9415 84.7621C92.9415 84.7621 96.9557 84.8896 100.205 84.0607C100.205 84.0607 100.014 86.3561 96.892 89.1616C96.892 89.1616 98.6124 87.3125 98.9947 85.3359C98.9947 85.3359 92.2406 86.6111 80.7077 85.3997C80.7077 85.3997 79.6245 86.5474 79.752 89.0341C78.9236 86.4198 79.4971 84.5708 79.4971 84.5708Z" fill="white"/>
<path d="M69.812 74.369C69.812 74.369 75.1643 77.2382 77.0758 81.7015C77.0758 81.7015 77.2033 82.5942 76.4387 81.574C76.4387 81.574 75.3555 78.641 70.0032 75.0066C70.0032 75.0066 68.4739 73.8589 69.812 74.369Z" fill="white"/>
<path d="M45.0895 72.1373L46.555 72.2011C46.555 72.2011 44.3249 65.6974 38.4629 63.9759C38.4629 63.9759 34.7672 63.2107 30.1796 64.3584C30.1796 64.3584 30.2433 66.1437 30.8167 68.2479C30.8167 68.2479 31.0716 64.996 32.792 64.741C32.792 64.741 39.4824 63.3382 42.5408 67.8653C42.5408 67.8653 40.0558 70.2882 39.6735 73.9864C39.6735 73.9864 40.247 74.879 40.5656 73.8589C40.5656 73.8589 41.2665 69.9694 43.178 68.6304C43.178 68.6304 44.6435 69.7781 45.0895 72.1373Z" fill="white"/>
<path d="M81.6635 68.1841C81.6635 68.1841 86.1237 66.7814 87.1432 70.0332C87.1432 70.0332 87.653 70.7983 85.9326 70.7983L81.6635 68.1841Z" fill="white"/>
<path d="M91.4186 71.8232C91.4186 71.8232 97.0956 72.4995 101.105 75.6555C101.105 75.6555 101.781 76.8277 100.204 76.422C100.204 76.422 98.222 73.6266 91.4186 71.8232Z" fill="white"/>
<path d="M101.871 75.4301C101.871 75.4301 106.016 77.8873 107.774 82.3057C107.774 82.3057 108.066 82.7791 107.864 83.4554C107.758 83.8095 107.391 83.9513 106.985 82.3959C106.829 81.7963 106.821 81.4749 106.197 80.2994C104.917 77.8887 101.871 75.4301 101.871 75.4301Z" fill="white"/>
<path d="M100.34 93.8252C100.34 93.8252 102.322 93.9604 103.989 92.8333C105.034 92.1271 103.917 82.4571 104.755 82.0577L105.701 81.6069C105.701 81.6069 107.909 81.697 105.611 84.312C105.016 84.9896 105.565 89.9234 105.476 93.1489C105.476 93.1489 104.349 94.6367 100.34 93.8252Z" fill="white"/>
<path d="M90.968 73.2659C90.968 73.2659 95.789 75.385 98.267 78C98.267 78 98.9428 79.2624 97.7263 78.5861C97.7263 78.5861 96.5098 76.7376 90.968 73.2659Z" fill="white"/>
<path d="M99.078 79.3075C99.078 79.3075 98.267 78.9468 99.0329 80.119C99.0329 80.119 100.565 81.5618 100.745 82.9144C101.601 81.2913 99.078 79.3075 99.078 79.3075Z" fill="white"/>
<path d="M37.3072 87.5582L38.8842 87.6033C38.8842 87.6033 40.1007 88.0091 39.1996 89.001C39.0644 89.0912 37.9831 89.2715 37.9831 89.2715C37.9831 89.2715 37.2171 89.0461 37.3072 87.5582Z" fill="white"/>
<path d="M32.2611 72.0035C32.2611 72.0035 33.5226 72.8151 36.6314 72.3642L37.082 75.0694C37.082 75.0694 38.6589 75.385 38.8391 74.2128C38.8391 73.9873 39.1545 70.8313 39.1545 70.8313C39.1545 70.8313 39.6952 68.1261 36.4512 67.9458C36.4512 67.9458 32.2611 67.6753 31.2698 68.6672C31.2698 68.6672 29.9182 70.0197 32.2611 72.0035Z" fill="white"/>
<path d="M30.8167 69.5869C30.8167 69.5869 36.2328 70.9896 39.1001 69.5869H30.8167Z" fill="white"/>
<path d="M65.262 118.086C21.4242 100.233 27.1588 44.2508 27.1588 44.2508C27.1588 44.2508 65.0071 31.2434 103.238 44.2508C103.238 44.2508 103.62 61.5938 99.9245 74.4736L98.0129 73.1984C98.0129 73.1984 101.326 59.8085 100.816 45.781M100.816 45.781C65.6443 35.1967 30.3447 45.781 30.3447 45.781C30.3447 45.781 24.1765 95.609 65.4471 115.267C65.4471 115.267 78.8736 108.864 89.8671 95.068L92.5704 94.9778C92.5704 94.9778 83.0989 110.266 65.262 118.086" fill="white"/>
<path d="M58.8128 18.4205C59.1408 18.2892 61.5957 17.0774 63.0137 16.4653C64.2958 15.9118 66.905 14.9136 66.905 14.9136C66.905 14.9136 69.4978 16.0576 70.7942 16.6297C72.1952 17.2479 74.9971 18.4842 74.9971 18.4842C74.9971 18.4842 71.8319 19.7812 70.3396 20.6089C69.2058 21.2378 67.0961 22.7563 67.0961 22.7563C67.0961 22.7563 64.8324 21.1411 63.6102 20.4863C62.0755 19.6639 58.8128 18.4205 58.8128 18.4205Z" fill="white"/>
<path d="M26.3476 42.334L25.6981 40.0996L26.2313 39.9875C26.6292 39.665 26.9278 39.2259 27.1269 38.6703C27.3233 38.1034 27.4115 37.2785 27.3915 36.1956C27.3714 35.1127 27.2025 33.6848 26.8848 31.9118L26.1233 27.3769L32.7057 25.9934L35.5686 37.8172L37.1314 37.4887L37.5895 39.953L35.6957 40.3511L35.5482 39.5578L28.212 41.0998L28.2783 41.9283L26.3476 42.334ZM32.9944 38.205L30.5735 28.341L28.6981 28.7352L29.279 31.8207C29.6129 33.5544 29.7849 34.916 29.795 35.9054C29.8173 36.8923 29.7422 37.6129 29.5699 38.0672C29.3975 38.5216 29.475 38.6008 29.1132 39.071L32.9944 38.205Z" fill="white"/>
<path d="M38.5512 25.048L42.9934 24.4613C45.5692 24.1212 47.0609 25.2775 47.4687 27.9304C47.8587 30.4679 46.7037 31.9149 44.0035 32.2715L42.4916 32.4712L43.449 38.6996L40.7052 39.0619L38.5512 25.048ZM43.2789 30.5314C44.0255 30.4328 44.5073 30.222 44.7243 29.8992C44.9395 29.5648 44.9886 29.017 44.8716 28.2557C44.7865 27.7021 44.6783 27.2868 44.5468 27.01C44.4137 26.7216 44.1986 26.5205 43.9018 26.4067C43.6175 26.2913 43.1953 26.2705 42.6354 26.3445L41.5715 26.485L42.2151 30.6719L43.2789 30.5314Z" fill="white"/>
<path d="M52.8624 23.4474L55.8142 23.2442L59.9916 37.1509L57.4158 37.3284L56.5529 34.1108L53.9019 34.2933L53.5427 37.5951L50.9293 37.775L52.8624 23.4474ZM56.1208 32.4933L54.6118 26.639L54.0526 32.6357L56.1208 32.4933Z" fill="white"/>
<path d="M63.0942 22.8953L65.3755 22.8992L65.3596 31.8293L69.5609 22.9056L71.4274 22.9088L71.4022 37.0642L69.0832 37.061L69.0994 27.9735L64.8978 37.0545L63.069 37.0515L63.0942 22.8953Z" fill="white"/>
<path d="M76.7247 23.1211L80.4614 23.4327C81.8885 23.5518 82.9642 23.9105 83.6885 24.509C84.4129 25.1075 84.7125 26.0508 84.5875 27.3388C84.5019 28.2207 84.2471 28.8954 83.8231 29.3631C83.3991 29.8307 82.8253 30.087 82.1016 30.1319C83.8238 30.5914 84.5874 31.8248 84.3926 33.8323C84.2744 35.1794 83.8186 36.1707 83.0249 36.8064C82.2438 37.4431 81.146 37.7025 79.7314 37.5845L75.3562 37.2196L76.7247 23.1211ZM79.8834 29.1924C80.6721 29.2582 81.2324 29.1412 81.5644 28.8413C81.8975 28.5299 82.1001 28.0028 82.1721 27.2602C82.242 26.5408 82.0952 26.0372 81.732 25.7496C81.3823 25.4514 80.7568 25.2647 79.8555 25.1895L79.311 25.1441L78.9258 29.1125L79.8834 29.1924ZM79.3625 35.7289C80.1762 35.7968 80.757 35.6639 81.1049 35.3303C81.4528 34.9966 81.6667 34.4179 81.7467 33.594C81.8289 32.747 81.7133 32.1174 81.4 31.7052C81.1003 31.2825 80.5436 31.0372 79.7299 30.9693L78.7534 30.8879L78.2922 35.6396L79.3625 35.7289Z" fill="white"/>
<path d="M90.0696 24.4895L96.3031 25.5349L95.954 27.3234L92.4477 26.7353L91.6656 30.7422L94.4114 31.2026L94.0656 32.9739L91.3199 32.5134L90.4171 37.1393L93.9605 37.7336L93.6215 39.4704L87.3509 38.4188L90.0696 24.4895Z" fill="white"/>
<path d="M100.998 26.5158L105.313 27.656C107.815 28.3172 108.67 29.9363 107.877 32.5132C107.119 34.9782 105.428 35.8641 102.805 35.171L101.337 34.7829L99.4762 40.8331L96.8109 40.1288L100.998 26.5158ZM102.908 33.3081C103.633 33.4998 104.166 33.4891 104.506 33.276C104.849 33.0518 105.135 32.5699 105.362 31.8305C105.527 31.2927 105.611 30.8725 105.612 30.5701C105.617 30.2564 105.509 29.9916 105.288 29.7757C105.079 29.5629 104.703 29.3847 104.159 29.241L103.125 28.9679L101.874 33.035L102.908 33.3081Z" fill="white"/>
<path d="M35.6127 47.4812L36.6794 47.2586L40.4951 53.2689L39.4284 53.4916L38.5348 51.9638L36.9052 52.3039L37.058 53.9863L36.0012 54.2068L35.6127 47.4812ZM38.1769 51.3578L36.5702 48.6259L36.8436 51.6361L38.1769 51.3578Z" fill="white"/>
<path d="M40.9652 46.4546L42.8289 46.1638C43.5637 46.0491 44.1408 46.0971 44.5603 46.3077C44.9785 46.513 45.2557 46.8922 45.3919 47.4453C45.5949 48.2695 45.3194 48.7847 44.5655 48.9907C45.0687 49.006 45.4639 49.1321 45.7512 49.3689C46.0371 49.6004 46.237 49.9475 46.3509 50.4101C46.4937 50.9898 46.4313 51.4689 46.1639 51.8475C45.9031 52.2251 45.422 52.4686 44.7206 52.578L42.5564 52.9158L40.9652 46.4546ZM43.4327 48.8693C43.9003 48.7963 44.2046 48.666 44.3457 48.4783C44.4855 48.2853 44.5069 47.992 44.41 47.5985C44.3392 47.3113 44.2307 47.1102 44.0844 46.9949C43.9435 46.8734 43.7583 46.8111 43.5287 46.8083C43.2991 46.8055 42.9672 46.838 42.533 46.9057L42.2624 46.948L42.7614 48.9741L43.4327 48.8693ZM44.291 51.9741C44.625 51.922 44.8723 51.842 45.033 51.7341C45.1991 51.6198 45.2979 51.4718 45.3295 51.2902C45.3611 51.1086 45.3408 50.8715 45.2688 50.579C45.1667 50.1642 44.9838 49.8725 44.7203 49.7038C44.4555 49.5297 44.0826 49.4802 43.6017 49.5553L42.9303 49.6601L43.5295 52.093L44.291 51.9741Z" fill="white"/>
<path d="M48.8665 46.023L47.3712 46.1968L47.2473 45.5211L51.319 45.048L51.4429 45.7236L50.0082 45.8903L51.0789 51.7298L49.9372 51.8625L48.8665 46.023Z" fill="white"/>
<path d="M56.5168 51.2908C55.7105 51.3527 55.1093 51.2165 54.7132 50.8821C54.3232 50.5419 54.0864 50.0265 54.0027 49.3361L53.7017 46.8521C53.6194 46.1725 53.7331 45.6438 54.0429 45.2662C54.3528 44.8885 54.9075 44.6689 55.707 44.6075C56.5065 44.5461 57.104 44.6799 57.4994 45.0089C57.8942 45.3324 58.1325 45.8313 58.2142 46.5056L58.5162 48.9976C58.5985 49.6773 58.4858 50.214 58.1779 50.6079C57.87 51.0017 57.3163 51.2294 56.5168 51.2908ZM56.4296 50.5707C56.8632 50.5374 57.1425 50.4152 57.2673 50.2042C57.3922 49.9931 57.4301 49.6853 57.3811 49.2808L57.033 46.4085C56.9847 46.0093 56.8745 45.721 56.7026 45.5437C56.53 45.361 56.2269 45.2862 55.7932 45.3196C55.3596 45.3529 55.08 45.4723 54.9545 45.678C54.8283 45.8782 54.7894 46.1779 54.8378 46.5771L55.1858 49.4494C55.2349 49.8539 55.346 50.1503 55.5193 50.3384C55.6925 50.5265 55.9959 50.604 56.4296 50.5707Z" fill="white"/>
<path d="M60.9107 44.3154L62.0639 44.2877L62.2879 50.2027L63.778 50.1669L63.554 44.252L64.7072 44.2243L64.9312 50.1393L66.3498 50.1052L66.1258 44.1902L67.2791 44.1626L67.5283 50.7438L61.1599 50.8966L60.9107 44.3154Z" fill="white"/>
<path d="M70.4232 44.2048L71.5761 44.2414L71.4294 47.1654L71.8579 47.179L73.4839 44.3021L74.6368 44.3388L72.8475 47.4139L74.5107 50.9242L73.3578 50.8875L71.8457 47.6261L71.407 47.6121L71.246 50.8204L70.0931 50.7837L70.4232 44.2048Z" fill="white"/>
<path d="M78.638 51.3001C77.8326 51.2317 77.278 51.0021 76.9744 50.6111C76.6783 50.2154 76.5765 49.6727 76.6689 48.9829L77.0013 46.5015C77.0922 45.8226 77.3371 45.3229 77.736 45.0025C78.1349 44.6822 78.7337 44.5559 79.5324 44.6237C80.3311 44.6915 80.8826 44.9182 81.1869 45.3037C81.492 45.6838 81.5994 46.2107 81.5091 46.8843L81.1756 49.3738C81.0847 50.0527 80.8387 50.5605 80.4376 50.897C80.0366 51.2335 79.4367 51.3679 78.638 51.3001ZM78.7344 50.5807C79.1676 50.6175 79.472 50.5425 79.6476 50.3558C79.8232 50.1691 79.9381 49.8736 79.9922 49.4695L80.3766 46.6001C80.43 46.2013 80.3949 45.9013 80.2713 45.7001C80.1483 45.4935 79.8703 45.3718 79.4371 45.335C79.0039 45.2982 78.6999 45.3705 78.525 45.5518C78.3508 45.7278 78.237 46.0151 78.1836 46.4139L77.7992 49.2833C77.7451 49.6874 77.7791 49.9955 77.9013 50.2075C78.0235 50.4195 78.3012 50.5439 78.7344 50.5807Z" fill="white"/>
<path d="M82.8235 50.9267C83.11 50.9745 83.3442 50.965 83.5259 50.8981C83.7076 50.8312 83.8911 50.6379 84.0764 50.318C84.2617 49.9981 84.4688 49.4803 84.6979 48.7646L85.7714 45.3599L89.3453 45.8875L87.8373 52.3614L86.7029 52.1939L88.0545 46.3914L86.5888 46.175L85.752 48.9202C85.5297 49.6369 85.3053 50.1991 85.0788 50.6065C84.8523 51.014 84.5691 51.3084 84.2292 51.4897C83.8893 51.671 83.455 51.7226 82.9262 51.6446C82.8125 51.6278 82.7261 51.6123 82.6671 51.598L82.8235 50.9267Z" fill="white"/>
<path d="M93.5848 46.925L94.6489 47.1552L94.1949 53.8799L93.1307 53.6497L93.3123 51.9706L91.6865 51.619L90.766 53.1382L89.7117 52.9101L93.5848 46.925ZM93.3814 51.3033L93.6984 48.2973L92.0512 51.0155L93.3814 51.3033Z" fill="white"/>
</g>
<defs>
<clipPath id="clip0_1_65">
<rect width="129" height="133" fill="white"/>
</clipPath>
</defs>
</svg>
