<svg width="18" height="28" viewBox="0 0 18 28" fill="none" xmlns="http://www.w3.org/2000/svg">
<path d="M9 0C4.0374 0 0 4.32266 0 9.63589C0 11.4311 0.46445 13.183 1.34345 14.7029L8.4877 27.0292C8.62455 27.2653 8.86565 27.4088 9.12495 27.4088H9.1309C9.39245 27.4066 9.63405 27.2586 9.7684 27.0184L16.7306 14.5727C17.5611 13.0849 18 11.3778 18 9.63589C18 4.32266 13.9626 0 9 0ZM15.4433 13.7482L9.1136 25.0633L2.61835 13.8567C1.8867 12.5916 1.49 11.1321 1.49 9.63589C1.49 5.2082 4.8645 1.59528 9 1.59528C13.1355 1.59528 16.505 5.2082 16.505 9.63589C16.505 11.0878 16.1345 12.51 15.4433 13.7482Z" fill="white"/>
<path d="M9 4.81787C6.5187 4.81787 4.5 6.9792 4.5 9.63581C4.5 12.2755 6.48585 14.4538 9 14.4538C11.5452 14.4538 13.5 12.2464 13.5 9.63581C13.5 6.9792 11.4813 4.81787 9 4.81787ZM9 12.8585C7.33715 12.8585 5.99 11.4113 5.99 9.63581C5.99 7.86474 7.3458 6.41314 9 6.41314C10.6542 6.41314 12.005 7.86474 12.005 9.63581C12.005 11.3854 10.6892 12.8585 9 12.8585Z" fill="white"/>
</svg>
