<svg width="23" height="26" viewBox="0 0 23 26" fill="none" xmlns="http://www.w3.org/2000/svg">
<path fill-rule="evenodd" clip-rule="evenodd" d="M7.86826 11.4295C8.34174 13.5586 10.8985 16.1947 12.7925 16.7016C13.6447 16.9044 14.5917 16.3975 14.8758 15.485C15.2546 14.167 16.8644 13.7614 17.8114 14.7752L20.4629 17.6141C21.1258 18.3238 21.1258 19.5404 20.4629 20.3515L18.6637 22.2779C16.7697 24.3057 11.7508 22.0751 7.30008 17.3099C2.84934 12.5447 0.860711 7.1712 2.65995 5.14345L4.45918 3.21709C5.12206 2.50738 6.25842 2.50738 7.01599 3.21709L9.66749 6.05594C10.6145 7.06981 10.2357 8.79339 9.00462 9.19894C8.15235 9.50306 7.58417 10.5169 7.86826 11.4295ZM9.87312 11.1407C12.3973 10.08 12.96 6.55275 11.0817 4.5418L8.38311 1.65254L8.333 1.60559C6.8761 0.240739 4.53678 0.105748 3.04497 1.70296L1.2276 3.64873L1.20995 3.66863C0.302019 4.69187 -0.00417427 6.00732 4.28789e-05 7.23767C0.00422891 8.45897 0.307767 9.7477 0.78229 11.0033C1.73398 13.5215 3.51848 16.2894 5.88586 18.8241C8.24671 21.3517 10.8288 23.2885 13.1813 24.3222C14.354 24.8375 15.5657 25.1708 16.7187 25.1685C17.8883 25.1662 19.1273 24.8098 20.0779 23.792C20.0779 23.792 20.0779 23.792 20.0779 23.792L21.9242 21.8153L21.968 21.7616C23.2429 20.2018 23.369 17.6971 21.8771 16.0999L19.2256 13.2611C17.3485 11.2513 14.0569 11.8519 13.064 14.5502C12.589 14.3536 11.8946 13.8813 11.2029 13.1501C10.4977 12.4046 10.0503 11.6594 9.87312 11.1407Z" fill="white"/>
</svg>
