<svg width="21" height="21" viewBox="0 0 21 21" fill="none" xmlns="http://www.w3.org/2000/svg">
<path d="M20.2214 1.0164L15.9593 0.0315811C15.5085 -0.0915212 15.0168 0.154683 14.8119 0.606058L12.8448 5.20188C12.6808 5.61222 12.8038 6.06359 13.1316 6.35083L15.6315 8.40254C14.1562 11.5211 11.5744 14.1473 8.37783 15.6656L6.32877 13.1625C6.0419 12.8342 5.59111 12.7111 5.1813 12.8752L0.59142 14.8449C0.140628 15.0501 -0.0642775 15.5425 0.0176847 15.9938L1.00123 20.2614C1.12417 20.7128 1.493 21 1.98478 21C12.4759 21 21 12.5059 21 1.96018C21 1.50881 20.6721 1.1395 20.2214 1.0164Z" fill="white"/>
</svg>
