<svg width="40" height="35" viewBox="0 0 40 35" fill="none" xmlns="http://www.w3.org/2000/svg">
<path d="M11.9688 13.7188C10.5977 13.7188 9.53125 14.8613 9.53125 16.1562C9.53125 17.5273 10.5977 18.5938 11.9688 18.5938C13.2637 18.5938 14.4062 17.5273 14.4062 16.1562C14.4062 14.8613 13.2637 13.7188 11.9688 13.7188ZM20.5 13.7188C19.1289 13.7188 18.0625 14.8613 18.0625 16.1562C18.0625 17.5273 19.1289 18.5938 20.5 18.5938C21.7949 18.5938 22.9375 17.5273 22.9375 16.1562C22.9375 14.8613 21.7949 13.7188 20.5 13.7188ZM29.0312 13.7188C27.6602 13.7188 26.5938 14.8613 26.5938 16.1562C26.5938 17.5273 27.6602 18.5938 29.0312 18.5938C30.3262 18.5938 31.4688 17.5273 31.4688 16.1562C31.4688 14.8613 30.3262 13.7188 29.0312 13.7188ZM20.5 0.3125C9.68359 0.3125 1 7.47266 1 16.1562C1 19.8125 2.44727 23.1641 4.96094 25.8301C3.89453 28.8008 1.5332 31.3906 1.45703 31.3906C0.923828 31.9238 0.847656 32.6855 1.07617 33.3711C1.38086 34.0566 2.06641 34.4375 2.82812 34.4375C7.47461 34.4375 11.207 32.5332 13.416 30.9336C15.625 31.6191 17.9863 32 20.5 32C31.2402 32 40 24.916 40 16.1562C40 7.47266 31.2402 0.3125 20.5 0.3125ZM20.5 28.3438C18.4434 28.3438 16.3867 28.0391 14.4824 27.4297L12.7305 26.8965L11.2832 27.9629C10.2168 28.7246 8.69336 29.5625 6.86523 30.1719C7.47461 29.2578 8.00781 28.1914 8.38867 27.125L9.22656 24.9922L7.62695 23.3164C6.25586 21.8691 4.65625 19.4316 4.65625 16.1562C4.65625 9.45312 11.7402 3.96875 20.5 3.96875C29.1836 3.96875 36.3438 9.45312 36.3438 16.1562C36.3438 22.9355 29.1836 28.3438 20.5 28.3438Z" fill="white"/>
</svg>
