<svg width="30" height="41" viewBox="0 0 30 41" fill="none" xmlns="http://www.w3.org/2000/svg">
<path fill-rule="evenodd" clip-rule="evenodd" d="M0.784535 0.798952C1.83058 -0.266318 3.52656 -0.266318 4.57261 0.798952L15 11.418L25.4274 0.798952C26.4734 -0.266318 28.1694 -0.266318 29.2155 0.798952C30.2615 1.86422 30.2615 3.59137 29.2155 4.65664L15 19.1333L0.784535 4.65664C-0.261512 3.59137 -0.261512 1.86422 0.784535 0.798952Z" fill="#F5B95F"/>
<path fill-rule="evenodd" clip-rule="evenodd" d="M0.784535 11.7323C1.83058 10.667 3.52656 10.667 4.57261 11.7323L15 22.3513L25.4274 11.7323C26.4734 10.667 28.1694 10.667 29.2155 11.7323C30.2615 12.7976 30.2615 14.5247 29.2155 15.59L15 30.0667L0.784535 15.59C-0.261512 14.5247 -0.261512 12.7976 0.784535 11.7323Z" fill="#F5B95F"/>
<path fill-rule="evenodd" clip-rule="evenodd" d="M0.784535 22.6656C1.83058 21.6003 3.52656 21.6003 4.57261 22.6656L15 33.2846L25.4274 22.6656C26.4734 21.6003 28.1694 21.6003 29.2155 22.6656C30.2615 23.7309 30.2615 25.458 29.2155 26.5233L15 41L0.784535 26.5233C-0.261512 25.458 -0.261512 23.7309 0.784535 22.6656Z" fill="#F5B95F"/>
</svg>
