<svg width="64" height="63" viewBox="0 0 64 63" fill="none" xmlns="http://www.w3.org/2000/svg">
<path d="M36.7447 58.8505C38.1717 57.4072 38.029 55.2423 36.7447 53.799L19.4783 37.201H60.5752C62.4303 37.201 64 35.7577 64 33.7371V29.1186C64 27.2423 62.4303 25.6546 60.5752 25.6546H19.4783L36.7447 9.20103C38.029 7.75773 38.1717 5.59278 36.7447 4.14948L33.6054 0.974227C32.3211 -0.324742 30.0379 -0.324742 28.7536 0.974227L1.07023 29.1186C-0.356745 30.4175 -0.356745 32.5825 1.07023 33.8814L28.7536 62.0258C30.0379 63.3247 32.1784 63.3247 33.6054 62.0258L36.7447 58.8505Z" fill="#BCBCBC"/>
</svg>
