<svg width="55" height="54" viewBox="0 0 55 54" fill="none" xmlns="http://www.w3.org/2000/svg">
<path d="M22.9733 44.0313L22.9993 44.0022L23.0275 43.9753L34.9877 32.5246H4.7291C2.71909 32.5246 1 30.9518 1 28.7755V25.11C1 23.0755 2.69167 21.3608 4.7291 21.3608H34.9719L23.0307 10.0277L23.0008 9.99938L22.9733 9.96866C21.6551 8.4932 21.4415 6.16813 23.0094 4.58873L25.511 2.06868C26.9256 0.643773 29.3821 0.643774 30.7966 2.06868L30.7985 2.07051L52.8407 24.3891C54.3864 25.8126 54.3864 28.1874 52.8407 29.6109L30.7985 51.9295L30.7966 51.9313C29.3628 53.3757 27.0459 53.3247 25.5491 51.9677L25.5296 51.95L25.511 51.9313L23.0094 49.4113C21.4415 47.8319 21.6551 45.5068 22.9733 44.0313Z" stroke="#02A0B5" stroke-width="2"/>
</svg>
