<svg width="102" height="17" viewBox="0 0 102 17" fill="none" xmlns="http://www.w3.org/2000/svg">
<path d="M8.04059 0.585047L5.85247 4.99937L0.903947 5.69636C0.0286981 5.82913 -0.307936 6.89122 0.331669 7.52184L3.86633 10.9404L3.02474 15.753C2.89009 16.616 3.83266 17.2798 4.60692 16.8815L9.01683 14.5914L13.3931 16.8815C14.1673 17.2798 15.1099 16.616 14.9753 15.753L14.1337 10.9404L17.6683 7.52184C18.3079 6.89122 17.9713 5.82913 17.0961 5.69636L12.1812 4.99937L9.95941 0.585047C9.58911 -0.178332 8.44455 -0.211522 8.04059 0.585047Z" fill="white"/>
<path d="M29.0406 0.585047L26.8525 4.99937L21.9039 5.69636C21.0287 5.82913 20.6921 6.89122 21.3317 7.52184L24.8663 10.9404L24.0247 15.753C23.8901 16.616 24.8327 17.2798 25.6069 16.8815L30.0168 14.5914L34.3931 16.8815C35.1673 17.2798 36.1099 16.616 35.9753 15.753L35.1337 10.9404L38.6683 7.52184C39.3079 6.89122 38.9713 5.82913 38.0961 5.69636L33.1812 4.99937L30.9594 0.585047C30.5891 -0.178332 29.4446 -0.211522 29.0406 0.585047Z" fill="white"/>
<path d="M50.0406 0.585047L47.8525 4.99937L42.9039 5.69636C42.0287 5.82913 41.6921 6.89122 42.3317 7.52184L45.8663 10.9404L45.0247 15.753C44.8901 16.616 45.8327 17.2798 46.6069 16.8815L51.0168 14.5914L55.3931 16.8815C56.1673 17.2798 57.1099 16.616 56.9753 15.753L56.1337 10.9404L59.6683 7.52184C60.3079 6.89122 59.9713 5.82913 59.0961 5.69636L54.1812 4.99937L51.9594 0.585047C51.5891 -0.178332 50.4446 -0.211522 50.0406 0.585047Z" fill="white"/>
<path d="M71.0406 0.585047L68.8525 4.99937L63.9039 5.69636C63.0287 5.82913 62.6921 6.89122 63.3317 7.52184L66.8663 10.9404L66.0247 15.753C65.8901 16.616 66.8327 17.2798 67.6069 16.8815L72.0168 14.5914L76.3931 16.8815C77.1673 17.2798 78.1099 16.616 77.9753 15.753L77.1337 10.9404L80.6683 7.52184C81.3079 6.89122 80.9713 5.82913 80.0961 5.69636L75.1812 4.99937L72.9594 0.585047C72.5891 -0.178332 71.4446 -0.211522 71.0406 0.585047Z" fill="white"/>
<path d="M92.0406 0.585047L89.8525 4.99937L84.9039 5.69636C84.0287 5.82913 83.6921 6.89122 84.3317 7.52184L87.8663 10.9404L87.0247 15.753C86.8901 16.616 87.8327 17.2798 88.6069 16.8815L93.0168 14.5914L97.3931 16.8815C98.1673 17.2798 99.1099 16.616 98.9753 15.753L98.1337 10.9404L101.668 7.52184C102.308 6.89122 101.971 5.82913 101.096 5.69636L96.1812 4.99937L93.9594 0.585047C93.5891 -0.178332 92.4446 -0.211522 92.0406 0.585047Z" fill="url(#paint0_linear_113_191)"/>
<defs>
<linearGradient id="paint0_linear_113_191" x1="102" y1="6.5" x2="93" y2="10" gradientUnits="userSpaceOnUse">
<stop offset="0.497817" stop-color="#919191"/>
<stop offset="0.497917" stop-color="white"/>
<stop offset="1" stop-color="white"/>
</linearGradient>
</defs>
</svg>
