<svg width="18" height="15" viewBox="0 0 18 15" fill="none" xmlns="http://www.w3.org/2000/svg">
<path d="M17.4372 1.33004C17.6716 0.236292 17.0466 -0.193395 16.3434 0.0800421L0.796572 6.0566C-0.258115 6.48629 -0.219053 7.07223 0.640322 7.34567L2.39947 7.8856C3.78776 8.31171 5.29271 8.11318 6.52301 7.34164L13.8044 2.77535C14.2341 2.46285 14.6638 2.65817 14.3122 2.9316L7.69194 8.8933C7.15284 9.37877 6.82426 10.0553 6.77601 10.7792L6.64051 12.8115C6.60659 13.3205 7.03748 13.7219 7.39813 13.3613V13.3613V13.3613C8.50129 12.2807 10.2256 12.1603 11.4682 13.0771L13.3356 14.455C14.0778 14.8847 14.6247 14.6504 14.82 13.791L17.4372 1.33004Z" fill="white"/>
</svg>
