<svg width="108" height="77" viewBox="0 0 108 77" fill="none" xmlns="http://www.w3.org/2000/svg">
<path d="M3.63937 2.12122C3.70632 1.29551 3.09121 0.571856 2.2655 0.504906C1.43978 0.437956 0.716128 1.05306 0.649178 1.87878L3.63937 2.12122ZM107.314 64.9394C107.833 64.2935 107.73 63.3494 107.084 62.8306L96.5588 54.3762C95.9129 53.8574 94.9688 53.9604 94.45 54.6062C93.9312 55.2521 94.0342 56.1962 94.68 56.715L104.035 64.2301L96.5204 73.5855C96.0016 74.2314 96.1046 75.1755 96.7505 75.6943C97.3963 76.2131 98.3405 76.1101 98.8593 75.4643L107.314 64.9394ZM0.649178 1.87878C-0.382313 14.6005 3.73908 32.9896 19.3952 46.9689C35.0675 60.9626 62.0486 70.3193 106.307 65.4912L105.982 62.5088C62.2399 67.2807 36.2211 57.9708 21.3933 44.7311C6.54947 31.4771 2.67086 14.0662 3.63937 2.12122L0.649178 1.87878Z" fill="#393838"/>
</svg>
