<svg width="19" height="12" viewBox="0 0 19 12" fill="none" xmlns="http://www.w3.org/2000/svg">
<path d="M18.5273 0.773438C18.6328 0.351562 18.5273 0 17.8945 0H15.8203C15.3288 0 15.0816 0.244296 14.9365 0.533666C14.9153 0.575834 14.8973 0.619431 14.8788 0.662831C14.7042 1.0724 13.7128 3.32269 12.375 4.85156C11.8828 5.30859 11.6719 5.48438 11.3906 5.48438C11.2852 5.48438 11.0742 5.30859 11.0742 4.88672V0.773438C11.0742 0.246094 10.9336 0 10.4766 0H7.24219C6.89062 0 6.71484 0.246094 6.71484 0.492188C6.71484 0.984375 7.45312 1.08984 7.52344 2.49609V5.55469C7.52344 6.22266 7.41797 6.36328 7.13672 6.36328C6.43359 6.36328 4.74609 3.76172 3.72656 0.808594C3.51562 0.246094 3.30469 0 2.77734 0H0.703125C0.140625 0 0 0.28125 0 0.597656C0 1.16016 0.703125 3.86719 3.26953 7.48828C4.99219 9.94922 7.41797 11.25 9.59766 11.25C10.8984 11.25 11.0742 10.9688 11.0742 10.4766C11.0742 8.12109 10.9688 7.875 11.6016 7.875C11.918 7.875 12.4453 8.05078 13.6758 9.24609C15.082 10.6523 15.3281 11.25 16.1016 11.25H18.1758C18.7734 11.25 19.0547 10.9688 18.8789 10.3711C18.4922 9.17578 15.8555 6.64453 15.7148 6.46875C15.4503 6.1454 15.4807 5.96952 15.621 5.71504C15.6808 5.60668 15.7502 5.5046 15.8209 5.40299C16.3036 4.70853 18.2807 1.82169 18.5273 0.773438Z" fill="white"/>
</svg>
